<?xml version="1.0" encoding="UTF-8"?><svg id="Layer_2" xmlns="http://www.w3.org/2000/svg" viewBox="0 0 130.74 130.27"><defs><style>.cls-1{fill:#c06522;stroke-width:0px;}</style></defs><g id="Layer_1-2"><path class="cls-1" d="M16.09,24.79c-.07-4.3-.05-6.4-.09-10.11.92.02,1.4.03,2.41.04,2.43.03,4.31,1.11,4.22,4.88-.09,3.8-1.78,5.32-4.04,5.27-1.05-.03-1.55-.04-2.5-.07ZM40.17,15.47s-.05,0-.09,0c-.79,3.17-1.25,4.5-2.11,7.64,1.82.07,2.7.11,4.42.18-.92-3.18-1.32-4.56-2.22-7.82ZM39.75,68.44c1.43-.27,2.2-1.31,1.84-3.39-.35-2.02-1.4-2.74-2.99-2.62-1.59.11-2.95,1.12-2.41,3.31.56,2.27,2.13,2.98,3.56,2.71ZM42.69,39.49c-2.38.01-4.32,1.46-4.28,5.06.03,3.72,2.05,5.96,4.49,5.87,2.44-.09,4.16-2.62,4.1-6.23-.06-3.49-1.93-4.71-4.31-4.7ZM61.81,43.39c.02,3.51,1.99,6.25,4.48,6.25,2.49,0,4.31-2.94,4.29-6.4-.02-3.34-1.86-4.11-4.35-4.14-2.49-.02-4.44.9-4.42,4.29ZM130.69,54.51c-.61,12.94-9.83,23.57-22.3,25.7-1.14.18-2.14.38-2.88,1.01-.67.54-1.24,13.06-1.41,13.91-2.13,10.42-8.97,20.11-18.58,25.34-9.69,5.27-21.44,10.11-32.68,9.79-9.36-.14-17.62-3.44-25.65-6.88-8.51-3.65-15.65-9.61-20.26-17.19-5.31-8.71-5.5-17.09-5.78-26.04-.14-4.94-.92-15.27-.9-26.62C.26,43.56.03,10.13,0,4.39-.04,2.63,1.52.73,3.18.16c3.11-.41,10.49.13,25.36-.05,11.74-.15,18.45,1.1,26.97.65,9.86-.52,16.22.1,23.84.07,12.18-.04,22.1-.95,25.14-.63.25.03.5.11.71.24,2.64,1.6,1.83,4.78,1.87,7.88.01,1.33.13,10.66.14,11.93,0,.75-.16,5.01.08,5.39.37.78,2.09,1.03,3.27,1.33,12.34,3.07,20.89,14.86,20.13,27.55ZM76.59,10.5c.08,5.08.23,11.99.19,20.36,2.27.04,3.36.06,5.68.07.06-5.62.06-7.26-.01-13.5h.03c2.93,6.24,4.21,7.89,6.79,13.49,3.37-.02,4.81-.04,8.18-.1.09-8.35-.07-16.53-.14-20.82-2.3.1-3.09.14-5.21.22.01,2.57.11,6.83.03,12-.02,0-.04,0-.06,0-2.07-5.14-3.23-9.19-5.54-11.81-3.85.1-6.2.14-9.96.09ZM83.05,66.78c.29-.79.53-1.4.99-2.73,2.04.3,3.2.49,5.08.82.88-2.24,1.41-3.66,2.14-5.63-3.73-.04-6.37-.19-10.06-.05-1.76,6.06-3.1,10.79-6.16,15.21,2.51,1.43,4.25,2.7,6.37,5.03,1.23-1.57,1.99-2.76,3.09-4.6-1.46-.99-2.33-1.47-4.06-2.33.59-1.09.88-1.69,1.43-2.92,1.36.48,2.04.75,3.33,1.29.61-1.24,1.09-2.29,1.45-3.13-1.4-.4-2.15-.6-3.6-.96ZM79.25,59.25c-4,.1-6.75-.24-10.24-.3-.85,4.86-1.56,8.71-2.89,11.97,3.6.96,5.15,1.53,7.82,2.88.68-1.04,1.16-1.91,1.76-3.2-1.75-.56-2.74-.85-4.73-1.35.26-.8.38-1.25.63-2.18,1.54.3,2.5.49,3.83.79.32-.9.64-1.72.77-2.27-1.38-.22-2.48-.39-4.09-.62.05-.55.18-.97.4-2,2.24.22,3.5.4,5.57.54.49-1.67.8-2.81,1.18-4.25ZM61.74,64.12c.15-.88.12-.84.28-1.83,2.09.06,3.22.08,5.11.21.29-1.39.49-2.38.72-3.56-3.31-.03-5.41.13-9.63-.11-.54,4.4-.93,7.75-1.19,10.57,1.45.1,2.16.17,3.58.38.27-1.09.55-1.75.8-3.37,1.56.13,2.34.21,3.88.4.2-.84.3-1.5.5-2.41-1.62-.13-2.43-.19-4.07-.28ZM66.24,33.82c-6.93-.1-11.61,3.69-11.64,9.86-.04,6.4,4.79,11.17,11.73,11.27,7.03.1,11.04-5.73,11.01-11.8-.03-5.95-4.17-9.22-11.09-9.33ZM51.23,61.94c2.06-.08,3.08-.02,5.19.11.13-1.28.24-2.21.35-3.31-3.95-.26-5.83-.08-9.73.11-.04,4.53-.01,7.67.99,10.65,1.41-.14,2.11-.19,3.49-.22-.18-1.11-.1-1.72-.22-3.31,1.53-.04,2.31-.02,3.92.05,0-.77.01-1.4.07-2.22-1.67-.07-2.46-.1-4.07-.04,0-.84-.03-.82.02-1.8ZM53.59,30.7c2.22-.05,3.35-.11,5.76-.14-.06-5.72-.11-7.79-.24-13.59h.03c2.82,5.76,4.3,7.87,7.06,13.62,3.38.06,4.76.13,8.14.22.04-8.39-.1-15.16-.18-20.34-2.27-.05-3.32-.1-5.57-.15.12,3.12.24,6.6.29,11.59-.02,0-.04,0-.06,0-2.26-5.06-3.6-8.4-5.99-11.65-3.75.02-5.51.2-9.2.28-.01,6.09.05,11.65-.04,20.17ZM42.61,34.02c-6.56-.06-11.52,4.12-11.49,10.74.03,6.87,5.01,10.89,11.88,10.69,6.96-.21,10.2-5.38,10.23-11.68.03-6.18-4.06-9.68-10.62-9.75ZM23.8,63.97c1.34-.16,2.41.61,3.05,2.23.03.08.11.27.18.5,1.26-.26,1.94-.4,3.35-.67-.05-.21-.16-.52-.22-.71-.64-2.23-3.41-6.02-7.7-6.05-4.42-.03-6.92,4.41-3.62,10.82,3.17,6.14,7.16,8.12,10.45,5.9,3-2.03,3.43-4.43,2.02-7.64-.07-.16-.18-.42-.31-.69-1.35.32-2,.49-3.21.81.14.27.21.4.24.47.8,1.66.46,2.75-.75,3.29-1.36.61-3.3-.37-4.73-3.44-1.41-3.01-.41-4.63,1.23-4.83ZM40.6,70.96c3.76-.99,5.57-2.7,5.04-6.26-.52-3.49-2.57-5.98-7.13-5.88-4.56.1-8.17,3.38-6.71,7.66,1.51,4.45,5.11,5.46,8.81,4.48ZM28.95,30.5c2.96-.02,4.27,0,7.02.05.43-1.59.65-2.38,1.07-3.93,2.66.07,3.82.1,6.45.18.44,1.55.66,2.34,1.1,3.91,3.11.06,4.43.07,7.48.02-2.77-8.5-4.26-13.65-7.35-20.4-3.39-.18-4.81-.29-8.19-.42-2.84,6.99-4.32,11.59-7.57,20.59ZM9.75,9.72c.11,8.25.17,11.35.29,20.41,3.93.09,4.85.18,8.56.27,6.81.16,10.83-3.46,10.89-10.76.07-6.97-3.82-9.76-11.49-9.81-3.69-.03-4.84-.07-8.26-.1ZM8.55,45.37c.03,6.68,4.15,9.86,9.26,10.08,2.79.12,5.22-.92,5.88-3.01.01,0,.02,0,.03,0-.01,1.21-.09,2.48-.13,2.9,2.21.03,3.76.04,5.86.04-.02-3.62-.03-6.38-.04-10.64-4.24.14-7.11.18-11,.19,0,1.23,0,1.84,0,3.07,1.66,0,2.6,0,4.45-.03,0,.09,0,.14,0,.23-.02,1.91-1.88,3.08-3.67,3.05-2.5-.05-3.99-1.97-4.04-5.84-.05-3.94,1.44-5.96,4.16-5.91,2.04.04,3.86,1.09,3.84,3.07,0,.25,0,.54-.04.82,2.27-.03,3.84-.05,6.09-.12.03-.31.06-.9.06-1.36-.02-4.55-4.22-7.94-10.32-8.07-6.66-.14-10.41,4.46-10.38,11.53ZM97.28,60.38c0-.26-.22-.61-.36-.82-.13-.18-.46-.37-.68-.37-.26,0-.58.25-.71.47-.12.24-.28.46-.35.72-.44,1.33-1.58,4.9-3.41,8.97-1.24,2.76-2.78,5.74-4.51,8.46-1.86,2.98-3.92,5.62-6.17,7.26-1.45-2.8-3.91-5.36-7.18-7.37-2.72-1.67-6.04-2.85-9.66-3.74-3.18-.77-6.54-1.2-10.17-1.2-.3,0-.39.01-.69.01s-.3-.03-.59-.03c-3.62,0-7.03.54-10.21,1.31-3.59.88-6.78,2.2-9.5,3.84-3.28,1.99-5.84,4.39-7.27,7.15-2.29-1.59-4.31-4.34-6.2-7.29-1.73-2.71-3.46-5.58-4.71-8.34-1.83-4.05-2.78-7.69-3.19-9.02-.07-.25-.28-.48-.39-.7-.13-.24-.41-.28-.69-.28h-.03c-.26,0-.56.01-.68.25-.1.18-.26.38-.31.55-.03.05-.05.14-.05.2-.21,1.95-.44,3.97-.25,5.91.2,3.18.2,6.37.42,9.53.21,3.18.48,6.34.78,9.49.3,3.18.47,6.35.94,9.5.51,3.43,2.07,6.42,4.03,9.24,1.79,2.6,3.95,5.22,6.96,7.37,2.25,1.58,4.71,2.89,7.22,4.13,2.44,1.22,5.02,2.25,7.67,3.18,2.56.89,5.2,1.75,7.96,2.39,2.65.59,5.33.72,7.99.72s5.28-.35,7.94-.94c2.75-.67,5.41-1.37,7.99-2.25,2.67-.93,5.19-2.04,7.63-3.24,2.51-1.24,5.02-2.44,7.24-4.04,3.05-2.16,5.49-4.52,7.28-7.11,1.95-2.85,3.09-6.04,3.61-9.48.46-3.14.81-6.3,1.1-9.46.3-3.16.61-6.33.82-9.5.21-3.16.34-6.34.54-9.5.3-1.97.03-3.99-.16-5.95ZM98.82,42.64c-.02-6.02-3.48-8.24-10.86-8.2-3.55.02-5.62.02-8.72-.01-.07,8.37-.04,13.03.01,20.53,2.98.06,4.91.1,8.79.16,7.1.1,10.81-6.17,10.79-12.47ZM107.76,37.96c-.38-.04-.6.27-.6.59-.03.92.18,3.4.18,5.84,0,5.19-.34,16.38-.34,20.07.08,1.05-.13,2.37.44,3.32.47.59,1.29.65,2.1.37,3.23-1.29,6-3.91,7.71-6.94,5.03-8.69.33-20.73-9.5-23.24ZM71.2,89.52c-1.09-1.87-3.37-2.81-6.22-3.01-1.48-.09-6.88-.31-11.69-.41-4.71.09-10.11.52-11.67.61-2.85.2-4.97.89-6.14,2.85-.59,1.08-.73,2.24-1.12,3.31-.59,1.57,0,2.99,1.18,4.27,2.17,2.46,4.68,2.8,7.92,1.14.69-.39,1.4-.76,2.08-1.15,1.18-.78,2.39-1.67,3.67-2.47,1.37-.78,2.82-.94,4.2-.94s2.8.37,4.07,1.16c1.28.78,2.59,1.35,3.87,2.14.69.39,1.36.8,2.04,1.19,3.24,1.57,5.78,1.42,7.94-1.03h.01c1.08-1.37,1.88-2.85,1.19-4.42-.41-1.08-.72-2.27-1.31-3.26ZM88.16,39.49c-.98,0-1.47,0-2.44.01-.11,2.04-.16,3.54-.25,9.73,1.04,0,1.57,0,2.64-.02,2.29-.02,3.94-2.99,3.99-6.35.05-3.33-1.59-3.4-3.94-3.38Z"/></g></svg>