<?xml version="1.0" encoding="UTF-8"?><svg id="Layer_1" xmlns="http://www.w3.org/2000/svg" viewBox="0 0 100 100"><defs><style>.cls-1{fill-rule:evenodd;}.cls-1,.cls-2{fill:#140e13;stroke-width:0px;}</style></defs><path class="cls-1" d="M99.95,39.4c-1.41,14.9-11.61,27.85-23.08,36.81-5.95,4.36-13.12,8.08-20.63,7.27-5.38-1.23-4.6-.68-2.15-5.17,5.67-10.48,14.63-18.63,23.02-26.91,5.23-5.26,10.51-10.46,14.52-16.74,1.58-2.24,3.03-4.6,4.22-7.1.12-.24.45-.28.62-.07,2.71,3.35,3.79,7.61,3.49,11.92ZM87.77,23.01c-6-1.01-11.74,1.93-16.9,4.81-11.19,7.31-20.16,18.33-25.23,30.69-2.19,6.81-3.71,15.21,1.92,20.69.18.18.48.13.59-.09,1.29-2.51,2.67-4.96,4.18-7.31,8.15-12.5,20.26-21.54,29.9-32.77,3.79-4.37,7.07-9.15,9.58-14.39.23-.97-3.29-1.45-4.04-1.63ZM52.96,35.03c-11.72-.52-23.26-2.84-35.01-2.05-5.7.4-11.29,1.67-16.82,3.3-.91.42,1.44,3.5,1.75,4.13,7.29,10.78,25.01,13.24,37.13,13.26,1.52,0,2.97-.06,4.32-.15.13,0,.25-.09.31-.21,1.26-2.61,2.73-5.16,4.32-7.61,2.37-3.51,4.94-6.94,7.84-10.03.81-1.13-3.31-.41-3.83-.64ZM72.32,18.84c-12.38-10.32-31.64-11.49-46.99-8.79C15.51,12.2,3.94,16.47.74,26.94.34,28.33.02,29.79.02,31.35c0,.17-.08.4.09.39,1.48-.47,2.93-.88,4.34-1.23,7.33-1.83,14.83-2.74,22.32-2.25,10.52.42,20.89,2.19,31.46,1.89,1.48-.09,3.06,0,4.56-.29,2.51-2.04,5.21-3.94,7.95-5.51,4.09-2.56,5.84-.98,1.56-5.5Z"/><path class="cls-2" d="M38.38,81.99c0,2.75-.16,2.75-.16,5.51,0,1.49-1.17,2.69-2.66,2.69-4.03-.37-2.2-5.39-2.61-8.2.26-3-1.67-7.78,2.61-8.33,1.49,0,2.6,1.33,2.6,2.82,0,2.75.22,2.75.22,5.51Z"/><path class="cls-2" d="M21.68,69.56c1.65-1.69,4.9-.49,4.6,1.99,0,2.13-3.15,4.02-4.59,5.83-1.95,1.95-2,1.89-3.95,3.84-2.43,2.53-6.25-1.47-3.85-3.85,3.05-2.78,5.02-4.76,7.8-7.8Z"/><path class="cls-2" d="M18.73,62.36c-4.12.04-6.91,0-11.02-.08-3.39.1-3.4-5.34,0-5.23,4.12.02,6.9-.05,11.02-.15,3.54.05,3.6,5.44,0,5.47Z"/></svg>