<?xml version="1.0" encoding="UTF-8"?><svg id="Layer_1" xmlns="http://www.w3.org/2000/svg" viewBox="0 0 100 100"><defs><style>.cls-1{fill:#140e13;stroke-width:0px;}</style></defs><path class="cls-1" d="M94.56,18c0-.28-.23-.65-.38-.87-.14-.2-.49-.39-.74-.39-.27,0-.62.26-.76.5-.13.25-.3.49-.38.77-.48,1.44-1.7,5.27-3.66,9.63-1.33,2.97-2.99,6.17-4.84,9.09-2,3.2-4.21,6.03-6.63,7.8-1.56-3.01-4.2-5.76-7.71-7.92-2.92-1.8-6.48-3.07-10.37-4.02-3.41-.83-7.02-1.29-10.93-1.29-.32,0-.42.02-.74.02s-.32-.03-.63-.03c-3.89,0-7.56.57-10.97,1.4-3.86.94-7.29,2.35-10.2,4.13-3.53,2.13-6.28,4.72-7.81,7.68-2.46-1.71-4.64-4.66-6.65-7.83-1.86-2.91-3.73-6-5.06-8.96-1.96-4.35-3-8.26-3.43-9.69-.07-.26-.3-.51-.41-.75-.15-.25-.44-.3-.74-.3h-.03c-.29,0-.6.02-.73.27-.11.2-.28.41-.33.59-.03.06-.06.16-.06.21-.22,2.09-.48,4.27-.27,6.35.22,3.41.22,6.84.46,10.24.22,3.41.52,6.81.84,10.19.33,3.41.5,6.82,1.01,10.22.55,3.68,2.23,6.9,4.32,9.93,1.93,2.79,4.25,5.6,7.48,7.92,2.41,1.7,5.05,3.1,7.75,4.43,2.62,1.31,5.39,2.41,8.24,3.41,2.76.95,5.6,1.89,8.55,2.57,2.85.63,5.73.77,8.59.77s5.67-.37,8.53-1.01c2.95-.71,5.82-1.47,8.57-2.41,2.87-1,5.58-2.19,8.21-3.49,2.69-1.33,5.39-2.62,7.77-4.33,3.28-2.32,5.9-4.86,7.82-7.64,2.1-3.06,3.31-6.48,3.88-10.18.49-3.37.87-6.78,1.18-10.17.32-3.4.65-6.8.88-10.21.23-3.4.37-6.81.58-10.21.32-2.12.03-4.29-.18-6.4ZM66.67,57.56l-.02-.02c-2.32,2.64-5.04,2.8-8.52,1.11-.74-.42-1.45-.85-2.19-1.27-1.38-.86-2.78-1.46-4.16-2.3-1.36-.86-2.89-1.25-4.36-1.25s-3.03.17-4.51,1.01c-1.38.86-2.68,1.81-3.94,2.66-.74.42-1.49.81-2.24,1.23-3.48,1.78-6.18,1.42-8.5-1.22-1.27-1.38-1.9-2.91-1.27-4.59.42-1.15.58-2.39,1.21-3.56,1.27-2.11,3.54-2.85,6.6-3.06,1.69-.1,7.48-.56,12.54-.66,5.17.1,10.97.33,12.56.43,3.06.21,5.52,1.22,6.68,3.23.64,1.05.97,2.33,1.4,3.49.75,1.69-.12,3.28-1.27,4.76Z"/><path class="cls-1" d="M86.75,79.65c-2.14-.66-2.54-3.93-.31-4.74,1.8-.92,4.76.92,6.91,1.35,2.49.8,2.46.87,4.95,1.68,3.18.96,1.46,5.91-1.59,4.92-3.66-1.37-6.19-2.18-9.96-3.21Z"/><path class="cls-1" d="M68.28,84.94c1.35.44,1.98,1.89,1.54,3.23-.8,2.49-.62,2.55-1.42,5.04q-.8,2.49-1.61,4.97c-1.14,3.23-5.96,1.81-4.88-1.57,1.17-3.71,1.95-6.22,3.13-9.93.43-1.33,1.88-2.14,3.24-1.75Z"/><path class="cls-1" d="M81.94,85.26c1.81,3.46,2.99,5.83,4.7,9.34,1.55,2.82-3.03,5.18-4.42,2.26-1.77-3.48-3.03-5.81-4.9-9.24-1.49-3.01,3.04-5.39,4.62-2.37Z"/></svg>