<?xml version="1.0" encoding="UTF-8"?><svg id="Layer_1" xmlns="http://www.w3.org/2000/svg" viewBox="0 0 100 100"><defs><style>.cls-1{fill:#140e13;stroke-width:0px;}</style></defs><path class="cls-1" d="M20.61,40.38c2.64,3.31-2.11,5.45-3.93,7.79-1.87,1.51-3.61,4.5-5.83,4.78-2.13-.14-3.64-3.14-1.91-4.72,2.9-2.91,4.91-4.9,7.83-7.77,1.06-1.05,2.8-1.13,3.85-.08Z"/><path class="cls-1" d="M8.2,33.28c-2.75,0-2.75-.16-5.51-.16C1.2,33.11,0,31.95,0,30.46c.37-4.03,5.39-2.2,8.2-2.61,3,.26,7.78-1.67,8.33,2.61,0,1.49-1.33,2.6-2.82,2.6-2.75,0-2.75.22-5.51.22Z"/><path class="cls-1" d="M20.63,16.58c1.69,1.65.49,4.9-1.99,4.6-2.13,0-4.02-3.15-5.83-4.59-1.95-1.95-1.89-2-3.84-3.95-2.53-2.43,1.47-6.25,3.85-3.85,2.78,3.05,4.76,5.02,7.8,7.8Z"/><path class="cls-1" d="M40.5,20.5c-1.05-1.06-.94-2.73.11-3.78,1.95-1.95,1.81-2.09,3.76-4.04q1.95-1.95,3.9-3.89c2.62-2.48,6.46,1.17,3.82,3.82-2.88,2.92-4.82,4.89-7.71,7.8-1.05,1.04-2.79,1.1-3.88.08Z"/><path class="cls-1" d="M27.84,13.62c-.04-4.12,0-6.91.08-11.02-.1-3.39,5.34-3.4,5.23,0-.02,4.12.05,6.9.15,11.02-.05,3.54-5.44,3.6-5.47,0Z"/><path class="cls-1" d="M99.97,53.94c-.13,6.71-6.34,7.62-11.53,9.14-4.54,1.33-7.63,2.23-12.17,3.59-8.79,2.48-6.75.9-9.49,9.5-1.41,4.53-2.4,7.58-3.78,12.12-1.37,5.34-2.09,11.45-8.96,11.65-6.52.18-7.9-5.63-9.68-10.65-1.63-4.17-2.66-7.02-4.16-11.24-3.87-9.41-7.02-18.49-10.56-28.03-1.64-4.17-2.77-6.97-4.39-11.14-1.11-3.6-3.14-6.21-2.28-10.04.88-4.52,6.03-7.63,10.4-5.79,4.12,1.74,6.94,2.87,11.16,4.37,7.75,2.76,14.72,5.56,22.48,8.29,7.61,3.13,14.78,5.41,22.37,8.59,4.9,1.83,11.11,3.1,10.59,9.66Z"/></svg>