<?xml version="1.0" encoding="UTF-8"?><svg id="Layer_2" xmlns="http://www.w3.org/2000/svg" viewBox="0 0 500 38.57"><defs><style>.cls-1{fill:#f4ece8;stroke-width:0px;}</style></defs><g id="Layer_1-2"><polygon class="cls-1" points="9.41 38.57 21.32 38.57 21.32 11.3 30.72 11.3 30.72 1.95 0 1.95 0 11.3 9.41 11.3 9.41 38.57"/><path class="cls-1" d="M385.93,38.57h9.27c7.29-1.46,11.13-6.51,11.13-13.69,0-8.63-5.51-14.25-15.75-14.25s-15.81,5.62-15.81,14.25c0,7.18,3.84,12.23,11.16,13.69ZM390.57,18.48c3.06,0,4.73,2.23,4.73,6.4s-1.67,6.29-4.73,6.29-4.79-2.23-4.79-6.29,1.67-6.4,4.79-6.4Z"/><path class="cls-1" d="M103.19,28.89c0,5.01,2.09,8.5,7.7,9.68h10.31c.34-.06.62-.12.8-.17v-7.9c-.72.17-2.34.33-3.62.33-3.12,0-4.17-.72-4.17-3.01v-8.46h8.13v-8.29h-8.13v-6.23h-9.07l-.39,3.51c-.17,2-.83,2.73-2.34,2.73h-3v8.29h3.78v9.52Z"/><path class="cls-1" d="M347.26,38.57h9.27c3.3-.91,5.51-2.9,6.27-5.73h.06c0,2.28-.11,4.84-.17,5.73h9.18v-18.59h-18.59v5.29h8.02v.39c0,3.23-3.12,5.18-6.51,5.18-4.73,0-8.29-3.34-8.29-10.02s3.51-10.3,8.4-10.3c3.67,0,6.79,1.89,6.79,5.4,0,.45,0,.95-.06,1.45h9.85c.05-.56.11-1.61.11-2.45,0-8.29-6.51-13.52-17.42-13.52-11.91,0-19.87,7.24-19.87,19.37,0,9.6,5.12,15.98,12.96,17.81Z"/><polygon class="cls-1" points="482.12 9.49 485.19 9.49 485.19 2.45 487.62 2.45 487.62 .04 479.7 .04 479.7 2.45 482.12 2.45 482.12 9.49"/><polygon class="cls-1" points="495.84 .04 494.37 5.08 494.34 5.08 492.88 .04 488.33 .04 488.33 9.49 490.97 9.49 490.92 3.17 490.95 3.17 492.84 9.49 495.07 9.49 496.94 3.17 496.97 3.17 496.93 9.49 500 9.49 500 .04 495.84 .04"/><path class="cls-1" d="M451.51,38.57h6.79c3.03-.9,4.83-3.07,5.63-5.73h.11c-.11,2.62-.22,4.73-.33,5.73h11.02V0h-11.02v14.64h-.06c-1.17-2.45-3.84-4.01-8.29-4.01-7.62,0-12.58,5.34-12.58,13.97,0,7.45,3.17,12.51,8.73,13.97ZM458.64,18.48c3.01,0,5.01,2.06,5.07,5.01v1.61c0,3.9-2.12,6.07-5.18,6.07s-4.79-2.45-4.79-6.46,1.89-6.23,4.9-6.23Z"/><path class="cls-1" d="M419.93,38.57h9.27c7.29-1.46,11.13-6.51,11.13-13.69,0-8.63-5.51-14.25-15.75-14.25s-15.81,5.62-15.81,14.25c0,7.18,3.84,12.23,11.16,13.69ZM424.58,18.48c3.06,0,4.73,2.23,4.73,6.4s-1.67,6.29-4.73,6.29-4.79-2.23-4.79-6.29,1.67-6.4,4.79-6.4Z"/><path class="cls-1" d="M77.76,23.49c-6.84,0-9.79,3.17-9.79,7.51,0,3.71,2.1,6.53,6.29,7.57h7.42c2.89-.81,4.54-2.68,5.16-5.23h.06c0,1.73-.17,4.06-.33,5.23h11.02v-16.2c0-7.29-4.73-11.74-14.69-11.74s-14.08,3.62-14.08,9.46c0,.61.06,1.28.17,1.84h9.63c-.06-.56-.06-1-.06-1.11,0-1.89,1.34-3.01,3.78-3.01,2.9,0,4.23,1.11,4.23,3.67v2h-8.79ZM86.55,28.66c0,2.62-1.89,4.12-5.01,4.12-2.23,0-3.56-.95-3.56-2.62,0-1.34,1.06-2.23,2.89-2.23h5.68v.72Z"/><path class="cls-1" d="M217.24,20.2c0-11.8-6.68-18.25-19.65-18.25h-15.58v36.62h16.64c12.19,0,18.59-6.01,18.59-18.37ZM193.98,29.44V11.08h4.29c4.12,0,7.07,2.62,7.07,9.13s-2.78,9.24-6.73,9.24h-4.62Z"/><path class="cls-1" d="M150.84,32.95c-3.51,0-4.56-1.34-4.62-3.62h-9.35c0,4.33,2.27,8,8.91,9.24h11.09c6.61-1.15,9.33-4.46,9.33-8.96,0-2.34-1.11-4.4-3.06-5.51-1.95-1.11-4.4-1.45-7.4-1.78-2.45-.22-4.56-.45-5.96-.67-1.61-.33-2.06-1.17-2.06-2.28,0-1.56,1.17-2.67,4.01-2.67,3,0,4.06,1.22,4.06,3.78h9.29c0-6.23-3.84-9.85-13.86-9.85-8.52,0-14.36,3.56-14.36,9.52,0,2.34,1.06,4.4,2.67,5.51,1.67,1.06,4.45,1.67,8.24,2,2.17.22,4.06.39,5.45.67,1.45.22,1.95.89,1.95,1.89,0,1.61-1.17,2.73-4.34,2.73Z"/><path class="cls-1" d="M298.56,25.77c0-4.01,2-5.96,5.23-5.96,2.73,0,4.34,1.34,4.34,4.34v14.42h11.02v-17.2c0-6.9-3.62-10.74-10.41-10.74-6.12,0-9.13,3.01-10.41,7.79h-.11l.33-7.35h-11.02v27.49h11.02v-12.8Z"/><path class="cls-1" d="M135.7,8.63V1.95h-9.85v9.74h3.73v.28c0,2.28-1.11,3.51-4.12,3.62v4.51c6.46-.17,10.24-3.34,10.24-11.47Z"/><path class="cls-1" d="M229.77,23.49c-6.85,0-9.8,3.17-9.8,7.51,0,3.71,2.1,6.53,6.29,7.57h7.42c2.89-.81,4.54-2.68,5.16-5.23h.05c0,1.73-.17,4.06-.33,5.23h11.02v-16.2c0-7.29-4.73-11.74-14.69-11.74s-14.08,3.62-14.08,9.46c0,.61.06,1.28.17,1.84h9.63c-.06-.56-.06-1-.06-1.11,0-1.89,1.34-3.01,3.78-3.01,2.89,0,4.23,1.11,4.23,3.67v2h-8.79ZM238.56,28.66c0,2.62-1.89,4.12-5.01,4.12-2.23,0-3.56-.95-3.56-2.62,0-1.34,1.06-2.23,2.89-2.23h5.68v.72Z"/><path class="cls-1" d="M263.77,25.77c0-4.01,2-5.96,5.23-5.96,2.73,0,4.34,1.34,4.34,4.34v14.42h11.02v-17.2c0-6.9-3.62-10.74-10.41-10.74-6.12,0-9.13,3.01-10.41,7.79h-.11l.33-7.35h-11.02v27.49h11.02v-12.8Z"/><path class="cls-1" d="M44.53,25.77c0-4.01,2-5.96,5.23-5.96,2.84,0,4.34,1.34,4.34,4.34v14.42h11.02v-17.2c0-7.01-3.67-10.74-10.35-10.74-6.18,0-9.13,3.06-10.41,7.79h-.11c.17-2.5.28-5.62.28-6.68V0h-11.02v38.57h11.02v-12.8Z"/></g></svg>